<svg width="45" height="45" viewBox="0 0 45 45" fill="none" xmlns="http://www.w3.org/2000/svg">
<path d="M42.838 27.7472L39.0939 25.585C39.4718 23.546 39.4718 21.4542 39.0939 19.4151L42.838 17.253C43.2687 17.0069 43.4621 16.4972 43.3214 16.0225C42.3459 12.8936 40.6847 10.0636 38.5138 7.70809C38.1798 7.34774 37.6349 7.25985 37.213 7.50594L33.4689 9.66805C31.8957 8.31454 30.0851 7.26864 28.1252 6.58309V2.26766C28.1252 1.77547 27.7824 1.34481 27.299 1.23934C24.0734 0.518637 20.7687 0.553793 17.7013 1.23934C17.2179 1.34481 16.8752 1.77547 16.8752 2.26766V6.59188C14.924 7.28621 13.1134 8.33211 11.5314 9.67684L7.79607 7.51473C7.3654 7.26864 6.82927 7.34774 6.49529 7.71688C4.32439 10.0636 2.66326 12.8936 1.68767 16.0313C1.53826 16.5059 1.74041 17.0157 2.17107 17.2618L5.91521 19.4239C5.53728 21.463 5.53728 23.5548 5.91521 25.5938L2.17107 27.7559C1.74041 28.002 1.54705 28.5118 1.68767 28.9864C2.66326 32.1153 4.32439 34.9454 6.49529 37.3009C6.82927 37.6612 7.37419 37.7491 7.79607 37.503L11.5402 35.3409C13.1134 36.6944 14.924 37.7403 16.884 38.4259V42.7501C16.884 43.2423 17.2267 43.6729 17.7101 43.7784C20.9357 44.4991 24.2404 44.4639 27.3078 43.7784C27.7912 43.6729 28.134 43.2423 28.134 42.7501V38.4259C30.0851 37.7315 31.8957 36.6856 33.4777 35.3409L37.2218 37.503C37.6525 37.7491 38.1886 37.67 38.5226 37.3009C40.6935 34.9542 42.3546 32.1241 43.3302 28.9864C43.4621 28.503 43.2687 27.9932 42.838 27.7472ZM22.5002 29.5313C18.6242 29.5313 15.4689 26.3761 15.4689 22.5001C15.4689 18.6241 18.6242 15.4688 22.5002 15.4688C26.3761 15.4688 29.5314 18.6241 29.5314 22.5001C29.5314 26.3761 26.3761 29.5313 22.5002 29.5313Z" fill="black"/>
</svg>
